<?xml version="1.0" encoding="UTF-8"?>
<svg id="Layer_1" data-name="Layer 1" xmlns="http://www.w3.org/2000/svg" viewBox="0 0 68.45 62.01">
  <defs>
    <style>
      .cls-1, .cls-2 {
        fill: #363435;
      }

      .cls-3 {
        letter-spacing: 0em;
      }

      .cls-4 {
        letter-spacing: .06em;
      }

      .cls-2 {
        font-family: Arial-Mdm, Arial;
        font-size: 8.13px;
        font-weight: 500;
      }

      .cls-5 {
        letter-spacing: .06em;
      }

      .cls-6 {
        fill: #83b34d;
      }
    </style>
  </defs>
  <g>
    <path class="cls-1" d="m8.44,48.55c.27-1.23.52-2.38.77-3.54.02-.09.04-.18.05-.27.06-.31.05-.61-.25-.79-.3-.18-.61-.11-.89.07-.4.26-.56.67-.65,1.11-.23,1.03-.46,2.05-.67,3.08-.05.27-.17.34-.43.34-.7-.02-1.4,0-2.13,0,0-.11,0-.18.02-.25.25-1.14.49-2.27.74-3.41.12-.54.04-.82-.25-.97-.3-.15-.81-.05-1.06.31-.22.31-.39.69-.48,1.06-.24.96-.44,1.94-.64,2.91-.05.27-.16.37-.45.36-.69-.02-1.38,0-2.12,0,.12-.54.23-1.04.33-1.54.33-1.54.66-3.07.97-4.61.06-.27.16-.37.45-.36.64.02,1.28,0,1.97,0-.05.29-.1.53-.16.85.26-.19.45-.34.66-.47.76-.5,1.58-.63,2.46-.44.52.11.83.47,1.02.97.26-.19.49-.37.73-.53.71-.48,1.49-.62,2.32-.45.72.15,1.21.66,1.17,1.4-.03.67-.17,1.34-.3,2-.19.96-.42,1.92-.62,2.88-.05.23-.14.3-.36.29-.72-.01-1.44,0-2.22,0Z"/>
    <path class="cls-1" d="m35.89,47.48c-.48.4-1.01.66-1.63.76-1.31.22-2.42-.6-2.47-1.94-.05-1.37.29-2.63,1.34-3.59.73-.67,1.65-.89,2.61-.78,1.09.13,1.78,1.01,1.86,2.25,0,.11.01.22.02.36.24-.56.15-1.2-.35-2.48h2.39c-.06.29-.11.56-.16.82-.4,1.85-.81,3.71-1.21,5.56-.3,1.38-1.48,2.43-2.94,2.62-.95.12-1.89.13-2.83-.07-1.08-.23-1.57-1-1.32-2.05.04-.18.09-.3.33-.26.65.09,1.3.14,1.95.22.07,0,.17.11.19.18.07.27.25.38.5.45.56.15,1.18-.08,1.4-.61.19-.45.29-.94.42-1.41-.03-.02-.07-.03-.1-.05Zm.66-2.67c0-.6-.24-1-.62-1.06-.47-.08-.88.06-1.16.45-.34.47-.48,1.02-.47,1.6.01.52.4.85.91.75.26-.05.54-.17.75-.34.45-.38.55-.93.6-1.4Z"/>
    <path class="cls-1" d="m24.6,48.55c.06-.29.1-.53.15-.77-.02-.02-.04-.04-.06-.05-.11.09-.22.19-.34.28-.74.6-1.57.81-2.5.6-.56-.13-.96-.48-1.19-1.01-.28-.64-.31-1.31-.2-2,.22-1.29.69-2.44,1.84-3.19.7-.45,1.47-.65,2.29-.43.39.1.74.34,1.13.53.12-.52.25-1.1.37-1.68.08-.34.14-.69.22-1.03.02-.08.11-.2.17-.21.79-.01,1.58,0,2.41,0-.16.75-.31,1.46-.46,2.16-.47,2.14-.94,4.28-1.4,6.42-.06.29-.17.38-.47.37-.64-.02-1.28,0-1.96,0Zm-1.73-2.68c.07.85.64,1.22,1.35.84.19-.1.38-.26.51-.44.35-.5.5-1.07.47-1.67-.03-.71-.7-1.08-1.32-.71-.22.13-.45.34-.55.57-.2.45-.31.93-.46,1.4Z"/>
    <path class="cls-1" d="m60.62,48.55c.17-.79.32-1.51.48-2.24.28-1.3.57-2.6.85-3.91.06-.26.15-.38.44-.37.64.03,1.28,0,1.98,0-.06.33-.12.62-.19.98.19-.16.33-.28.48-.39.79-.62,1.67-.86,2.66-.66.67.14,1.14.62,1.12,1.29-.02.69-.15,1.39-.28,2.07-.18.95-.41,1.9-.61,2.85-.05.26-.14.38-.44.37-.6-.03-1.2,0-1.8,0h-.37c.18-.81.35-1.57.51-2.33.11-.53.25-1.06.31-1.59.07-.61-.32-.89-.92-.71-.46.14-.73.47-.85.9-.22.78-.38,1.58-.57,2.37-.09.38-.16.77-.26,1.16-.02.08-.13.2-.2.2-.76.01-1.51,0-2.34,0Z"/>
    <path class="cls-1" d="m60.59,45.91h-4.99c-.2.93.4,1.5,1.27,1.25.2-.06.43-.13.57-.27.23-.23.49-.25.77-.22.63.06,1.27.13,1.95.2-.81,1.04-1.78,1.69-3.06,1.76-.75.04-1.51.03-2.25-.07-1.02-.15-1.71-.99-1.8-2.01-.2-2.26,1.47-4.3,3.72-4.56.8-.09,1.58-.08,2.34.15.97.28,1.57,1.03,1.59,2.04.01.58-.08,1.16-.12,1.76Zm-2.39-1.22c.17-.81-.15-1.29-.84-1.3-.71,0-1.35.55-1.47,1.3h2.32Z"/>
    <path class="cls-1" d="m14.82,45.9c-.07.46-.05.87.34,1.13.41.28.94.29,1.27,0,.62-.55,1.29-.3,1.95-.28.32.01.65.07,1.02.11-.63.79-1.33,1.38-2.27,1.62-1.01.25-2.03.29-3.05.07-1-.22-1.69-1.02-1.78-2.04-.2-2.27,1.46-4.27,3.73-4.55.8-.1,1.58-.07,2.34.15.97.28,1.58,1.06,1.58,2.08,0,.56-.08,1.12-.13,1.71h-5.01Zm2.61-1.21c.16-.82-.15-1.3-.85-1.3-.71,0-1.35.56-1.47,1.3h2.31Z"/>
    <path class="cls-1" d="m52.44,45.9h-4.96c-.26.83.35,1.48,1.19,1.28.23-.06.48-.17.66-.31.21-.17.42-.24.68-.21.66.07,1.31.13,2.03.2-.55.7-1.14,1.23-1.91,1.5-1.06.38-2.16.41-3.27.23-1.54-.26-2.07-1.62-1.94-2.77.24-1.99,1.47-3.35,3.42-3.8.85-.19,1.71-.16,2.55.06,1.1.29,1.71,1.09,1.71,2.27,0,.51-.1,1.03-.16,1.56Zm-4.68-1.19c.73,0,1.46,0,2.19,0,.06,0,.15-.07.17-.12.16-.41-.13-.99-.55-1.13-.87-.29-1.73.52-1.8,1.26Z"/>
    <path class="cls-1" d="m43.2,42.05c-.06.31-.1.56-.15.81.47-.48.93-.92,1.63-.95.44-.02.84.11,1.25.36-.38.59-.75,1.16-1.12,1.71-.05.01-.07.02-.09.02-.9-.29-1.42-.12-1.75.77-.34.9-.54,1.86-.79,2.8-.09.31-.07.75-.27.91-.2.16-.62.07-.95.07-.48,0-.97,0-1.51,0,.08-.38.15-.72.23-1.06.37-1.7.74-3.4,1.1-5.1.06-.27.17-.36.45-.35.64.02,1.29,0,1.97,0Z"/>
    <path class="cls-1" d="m27.83,48.55c.18-.85.35-1.63.52-2.41.27-1.25.55-2.49.81-3.74.06-.27.16-.37.45-.36.7.02,1.4,0,2.14,0-.14.64-.26,1.24-.39,1.83-.31,1.45-.64,2.89-.94,4.34-.05.26-.16.35-.43.34-.7-.02-1.4,0-2.16,0Z"/>
    <path class="cls-1" d="m29.41,41.29c.12-.53.21-1,.33-1.47.02-.08.13-.21.2-.21.66-.02,1.31-.01,1.97-.01.11,0,.22,0,.38,0-.12.58-.24,1.12-.36,1.69-.42,0-.84,0-1.25,0s-.81,0-1.26,0Z"/>
  </g>
  <g>
    <path class="cls-6" d="m37.94,29.09c-.33-.37-.64-.66-.87-1-.7-1.04-1.46-2.06-2.03-3.16-.92-1.77-2.26-3.05-4.01-3.95-.12-.06-.23-.14-.36-.19-1.47-.65-2.43-1.82-3.26-3.15-.61-.98-1.29-1.91-1.98-2.83-.22-.29-.54-.52-.85-.7-.54-.31-1.01-.08-1.14.54-.14.68.06,1.3.44,1.87.75,1.12,1.5,2.23,2.25,3.35.06.09.12.19.14.32-.23-.19-.45-.37-.68-.56-.95-.81-2.01-1.53-2.83-2.46-1.53-1.73-2.67-3.72-3.22-6.01-.14-.57-.33-1.13-.58-1.66-.14-.28-.41-.55-.69-.71-.39-.22-.62-.02-.6.44.16,3.9,1.54,7.34,3.93,10.39,1.81,2.31,4.05,4.15,6.51,5.73,1.41.9,2.77,1.87,4.01,3,.11.1.24.2.36.3-.03.04-.06.08-.09.12-1.54-.88-3.07-1.77-4.63-2.67,0,.08,0,.21,0,.34,0,1.78,0,3.55-.01,5.33-.01,1.64-1.02,2.9-2.61,3.29-.17.04-.36.06-.54.06-1.37,0-2.74.04-4.11,0-1.74-.06-3.09-1.48-3.13-3.22,0-.14,0-.27,0-.41,0-7.56-.02-15.12,0-22.68.01-3.17,1.23-5.78,3.98-7.5,3.66-2.28,8.13-1.51,10.97,1.83,1.46,1.71,2.43,3.7,3.19,5.79,1.24,3.4,1.97,6.92,2.38,10.5.34,3,.44,6,.14,9.01-.01.11-.02.22-.04.34,0,.07-.02.13-.06.31Z"/>
    <path class="cls-6" d="m45.83,17.59c.35-.95.71-1.9,1.05-2.85.12-.32.23-.64.32-.96.04-.14.03-.29.02-.44-.03-.29-.12-.56-.43-.67-.3-.11-.55.04-.72.24-.23.26-.43.55-.6.86-.19.33-.34.69-.49,1.04-.42.94-.98,1.78-1.75,2.47-.95.85-1.42,1.94-1.45,3.21-.02.82-.32,1.56-.77,2.22-.48.71-1.05,1.36-1.59,2.02-.12.14-.28.25-.49.42,0-.2,0-.31,0-.43.14-5.5-.54-10.89-2.35-16.1-.39-1.12-.91-2.19-1.38-3.28-.1-.22-.1-.39.01-.6,1.47-2.59,3.68-4.15,6.6-4.59,4.77-.72,9.18,3.04,9.38,7.9,0,.18-.05.26-.2.37-.26.19-.51.42-.67.69-.21.37-.39.78-.47,1.19-.47,2.44-1.62,4.54-3.17,6.45-.24.3-.47.6-.7.9-.04-.02-.09-.04-.13-.07Z"/>
    <path class="cls-6" d="m51.21,10.58c0,.37,0,.74,0,1.12,0,6.65,0,13.3,0,19.96,0,1.52-.75,2.69-2.08,3.23-.3.12-.63.21-.95.21-1.44.02-2.87.05-4.31,0-1.54-.05-2.92-1.32-3-2.85-.06-1.21.01-2.44.16-3.65.15-1.22.92-2.15,1.73-3.01,1.72-1.82,3.28-3.77,4.61-5.89,1.48-2.37,2.73-4.85,3.44-7.57.13-.51.23-1.03.34-1.55.02,0,.04,0,.05,0Z"/>
    <path class="cls-1" d="m57.48,33.42c0,.89-.73,1.62-1.62,1.62-.88,0-1.62-.74-1.63-1.62,0-.9.74-1.64,1.64-1.63.89,0,1.6.73,1.6,1.63Zm-1.6,1.31c.74,0,1.3-.57,1.3-1.32,0-.74-.61-1.36-1.33-1.34-.74.02-1.31.62-1.3,1.37.01.74.58,1.29,1.33,1.29Z"/>
    <path class="cls-1" d="m55.55,33.56c-.25.21.16.68-.41.75,0-.55,0-1.07,0-1.59,0-.06.12-.16.19-.17.2-.02.41,0,.61,0,.26.02.5.09.56.39.05.29-.12.46-.38.56.17.25.33.49.49.74-.25.09-.38.02-.49-.19-.13-.24-.24-.52-.58-.51Zm-.1-.75c.05.23-.13.52.26.5.19-.01.5.03.45-.26-.07-.38-.41-.22-.71-.24Z"/>
  </g>
  <text class="cls-2" transform="translate(13.75 59.98)"><tspan class="cls-5" x="0" y="0">HOSPI</tspan><tspan class="cls-3" x="25.99" y="0">T</tspan><tspan class="cls-4" x="30.6" y="0">AL</tspan></text>
</svg>